<svg width="220" height="37" viewBox="0 0 220 37" fill="none" xmlns="http://www.w3.org/2000/svg">
<path d="M0.8 36L15.2 0.999998H23.6L37.8 36H29.95L26.4 26.8H11.95L8.35 36H0.8ZM14.2 21H24.2L19.25 8.1L14.2 21ZM40.7711 0.999998H47.6711L65.0711 23.65V0.999998H71.8711V36H65.4711L47.6211 12.6V36H40.7711V0.999998ZM78.2223 36V0.999998H85.4723V36H78.2223ZM102.695 36L88.4953 0.999998H96.3453L107.045 28.65L117.995 0.999998H125.495L111.095 36H102.695ZM128.466 36V0.999998H155.366V7.3H135.716V15.3H148.666V21.4H135.716V29.7H155.566V36H128.466ZM157.693 30.45L161.843 25.25C163.876 27.0167 165.826 28.3167 167.693 29.15C169.593 29.95 171.593 30.35 173.693 30.35C175.86 30.35 177.593 29.95 178.893 29.15C180.193 28.35 180.843 27.2833 180.843 25.95C180.843 24.75 180.393 23.8167 179.493 23.15C178.626 22.4833 177.16 21.9833 175.093 21.65L168.143 20.45C165.143 19.95 162.86 18.9 161.293 17.3C159.76 15.7 158.993 13.6333 158.993 11.1C158.993 7.83333 160.226 5.25 162.693 3.35C165.193 1.45 168.56 0.499998 172.793 0.499998C175.326 0.499998 177.876 0.933332 180.443 1.8C183.043 2.66666 185.31 3.86666 187.243 5.4L183.343 10.8C181.476 9.36666 179.643 8.31666 177.843 7.65C176.043 6.95 174.193 6.6 172.293 6.6C170.36 6.6 168.81 6.96667 167.643 7.7C166.476 8.4 165.893 9.35 165.893 10.55C165.893 11.6167 166.276 12.45 167.043 13.05C167.81 13.65 169.093 14.0833 170.893 14.35L177.493 15.45C180.96 16.0167 183.56 17.1333 185.293 18.8C187.06 20.4333 187.943 22.6 187.943 25.3C187.943 28.7 186.593 31.4167 183.893 33.45C181.226 35.4833 177.66 36.5 173.193 36.5C170.393 36.5 167.626 35.9667 164.893 34.9C162.193 33.8333 159.793 32.35 157.693 30.45ZM189.058 7.4V0.999998H219.858V7.4H208.108V36H200.858V7.4H189.058Z" fill="url(#paint0_linear_42_31)"/>
<defs>
<linearGradient id="paint0_linear_42_31" x1="8" y1="24" x2="224" y2="18" gradientUnits="userSpaceOnUse">
<stop offset="0.0483497" stop-color="#6100FF"/>
<stop offset="0.516098" stop-color="#0094FF"/>
<stop offset="0.884086" stop-color="#97CEDF"/>
</linearGradient>
</defs>
</svg>
