<svg width="178" height="30" viewBox="0 0 178 30" fill="none" xmlns="http://www.w3.org/2000/svg">
<path d="M0.64 29L17.76 0.999998H24.32L29.64 29H23.8L22.52 21.64H11.16L6.88 29H0.64ZM13.88 17H21.76L19.96 6.68L13.88 17ZM31.9909 29L37.9509 0.999998H43.3109L53.0309 19.6L56.9509 0.999998H62.3109L56.3509 29H51.3909L41.4309 9.76L37.3509 29H31.9909ZM61.3659 29L67.3259 0.999998H73.0059L67.0459 29H61.3659ZM80.6309 29L75.3109 0.999998H81.2309L85.0309 23.08L98.1909 0.999998H104.311L87.2309 29H80.6309ZM100.702 29L106.662 0.999998H127.742L126.662 6.04H111.262L109.862 12.44H120.022L118.982 17.32H108.862L107.422 23.96H123.022L121.942 29H100.702ZM138.483 29.4C135.95 29.4 133.59 28.92 131.403 27.96C129.216 26.9733 127.323 25.56 125.723 23.72L129.523 19.8C130.963 21.4 132.456 22.6 134.003 23.4C135.55 24.1733 137.203 24.56 138.963 24.56C140.03 24.56 140.963 24.4133 141.763 24.12C142.563 23.8267 143.176 23.4 143.603 22.84C144.056 22.28 144.283 21.64 144.283 20.92C144.283 20.12 143.976 19.48 143.363 19C142.75 18.4933 141.71 18.0533 140.243 17.68L135.003 16.32C132.95 15.76 131.403 14.8933 130.363 13.72C129.323 12.52 128.803 11.04 128.803 9.28C128.803 7.49333 129.23 5.96 130.083 4.68C130.963 3.37333 132.203 2.37333 133.803 1.68C135.403 0.959999 137.31 0.599998 139.523 0.599998C141.763 0.599998 143.923 1.02667 146.003 1.88C148.11 2.70667 149.936 3.86667 151.483 5.36L147.923 9.44C146.536 8.10667 145.11 7.10667 143.643 6.44C142.176 5.77333 140.63 5.44 139.003 5.44C137.563 5.44 136.403 5.73333 135.523 6.32C134.67 6.88 134.243 7.65333 134.243 8.64C134.243 9.36 134.523 9.96 135.083 10.44C135.643 10.8933 136.55 11.2933 137.803 11.64L142.803 12.84C145.176 13.4 146.95 14.2933 148.123 15.52C149.323 16.7467 149.923 18.2667 149.923 20.08C149.923 21.9467 149.443 23.5867 148.483 25C147.55 26.3867 146.23 27.4667 144.523 28.24C142.816 29.0133 140.803 29.4 138.483 29.4ZM157.087 29L161.967 6.12H152.687L153.807 0.999998H177.967L176.847 6.12H167.647L162.767 29H157.087Z" fill="url(#paint0_linear_34_581)"/>
<path d="M3 39H174.927V43H3V39Z" fill="url(#paint1_linear_34_581)"/>
<defs>
<linearGradient id="paint0_linear_34_581" x1="7.12329" y1="19.2857" x2="134.388" y2="16.3704" gradientUnits="userSpaceOnUse">
<stop offset="0.0483497" stop-color="#6100FF"/>
<stop offset="0.516098" stop-color="#0094FF"/>
<stop offset="0.884086" stop-color="#97CEDF"/>
</linearGradient>
<linearGradient id="paint1_linear_34_581" x1="7.12329" y1="19.2857" x2="134.388" y2="16.3704" gradientUnits="userSpaceOnUse">
<stop offset="0.0483497" stop-color="#6100FF"/>
<stop offset="0.516098" stop-color="#0094FF"/>
<stop offset="0.884086" stop-color="#97CEDF"/>
</linearGradient>
</defs>
</svg>
